{
	"asset":{
		"generator":"Khronos glTF Blender I/O v3.6.27",
		"version":"2.0"
	},
	"scene":0,
	"scenes":[
		{
			"name":"Scene",
			"nodes":[
				0
			]
		}
	],
	"nodes":[
		{
			"mesh":0,
			"name":"Sphere"
		}
	],
	"materials":[
		{
			"name":"Material",
			"normalTexture":{
				"index":0
			},
			"pbrMetallicRoughness":{
				"baseColorTexture":{
					"index":1
				},
				"metallicFactor":0.0,
				"roughnessFactor":0.5
			}
		}
	],
	"meshes":[
		{
			"name":"Sphere",
			"primitives":[
				{
					"attributes":{
						"POSITION":0,
						"NORMAL":1,
						"TEXCOORD_0":2,
						"TANGENT":3
					},
					"indices":4,
					"material":0
				}
			]
		}
	],
	"textures":[
		{
			"source":0
		},
		{
			"source":1
		}
	],
	"images":[
		{
			"uri":"textures/normal.ktx2"
		},
		{
			"uri":"textures/color.ktx2"
		}
	],
	"accessors":[
		{
			"bufferView":0,
			"componentType":5126,
			"count":3120,
			"max":[
				20.000003814697266,
				20,
				20.0000057220459
			],
			"min":[
				-20.000009536743164,
				-20,
				-20
			],
			"type":"VEC3"
		},
		{
			"bufferView":1,
			"componentType":5126,
			"count":3120,
			"type":"VEC3"
		},
		{
			"bufferView":2,
			"componentType":5126,
			"count":3120,
			"type":"VEC2"
		},
		{
			"bufferView":3,
			"componentType":5126,
			"count":3120,
			"type":"VEC4"
		},
		{
			"bufferView":4,
			"componentType":5123,
			"count":4560,
			"type":"SCALAR"
		}
	],
	"bufferViews":[
		{
			"buffer":0,
			"byteLength":37440,
			"byteOffset":0,
			"target":34962
		},
		{
			"buffer":0,
			"byteLength":37440,
			"byteOffset":37440,
			"target":34962
		},
		{
			"buffer":0,
			"byteLength":24960,
			"byteOffset":74880,
			"target":34962
		},
		{
			"buffer":0,
			"byteLength":49920,
			"byteOffset":99840,
			"target":34962
		},
		{
			"buffer":0,
			"byteLength":9120,
			"byteOffset":149760,
			"target":34963
		}
	],
	"buffers":[
		{
			"byteLength":158880,
			"uri":"moon.bin"
		}
	]
}
