{
	"asset":{
		"generator":"Khronos glTF Blender I/O v3.6.27",
		"version":"2.0"
	},
	"scene":0,
	"scenes":[
		{
			"name":"Scene",
			"nodes":[
				0
			]
		}
	],
	"nodes":[
		{
			"mesh":0,
			"name":"flag",
			"scale":[
				0.44999998807907104,
				0.0005000000237487257,
				0.8999999761581421
			]
		}
	],
	"materials":[
		{
			"name":"Material",
			"normalTexture":{
				"index":0
			},
			"occlusionTexture":{
				"index":1
			},
			"pbrMetallicRoughness":{
				"baseColorTexture":{
					"index":2
				},
				"metallicRoughnessTexture":{
					"index":3
				}
			}
		}
	],
	"meshes":[
		{
			"name":"flag",
			"primitives":[
				{
					"attributes":{
						"POSITION":0,
						"NORMAL":1,
						"TEXCOORD_0":2
					},
					"indices":3,
					"material":0
				}
			],
            "extras": {
                "deformable": true,
                "compliance": 0.01,
                "density": 0.3,
                "static": [11533, 24011]
            }
		}
	],
	"textures":[
		{
			"source":0
		},
		{
			"source":1
		},
		{
			"source":2
		},
        {
			"source":3
		}
	],
	"images":[
		{
			"uri":"textures/normal.ktx2"
		},
		{
			"uri":"textures/occlusion.ktx2"
		},
		{
			"uri":"textures/color.ktx2"
		},
        {
			"uri":"textures/metallic-roughness.ktx2"
		}
	],
	"accessors":[
		{
			"bufferView":0,
			"componentType":5126,
			"count":25350,
			"max":[
				1.000000238418579,
				1.000000238418579,
				1.000000238418579
			],
			"min":[
				-1.000000238418579,
				-1.000000238418579,
				-1.000000238418579
			],
			"type":"VEC3"
		},
		{
			"bufferView":1,
			"componentType":5126,
			"count":25350,
			"type":"VEC3"
		},
		{
			"bufferView":2,
			"componentType":5126,
			"count":25350,
			"type":"VEC2"
		},
		{
			"bufferView":3,
			"componentType":5123,
			"count":147456,
			"type":"SCALAR"
		}
	],
	"bufferViews":[
		{
			"buffer":0,
			"byteLength":304200,
			"byteOffset":0,
			"target":34962
		},
		{
			"buffer":0,
			"byteLength":304200,
			"byteOffset":304200,
			"target":34962
		},
		{
			"buffer":0,
			"byteLength":202800,
			"byteOffset":608400,
			"target":34962
		},
		{
			"buffer":0,
			"byteLength":294912,
			"byteOffset":811200,
			"target":34963
		}
	],
	"buffers":[
		{
			"byteLength":1106112,
			"uri":"flag.bin"
		}
	]
}
